<svg name="squircle" xmlns="http://www.w3.org/2000/svg" viewBox="0 0 1024 1024">
    <g transform="translate(0,1024) scale(0.100000,-0.100000)">
        <path fill="#ffffff" d="M4360 10220 c-1518 -62 -2477 -322 -3143 -853 -317 -252 -583 -602 -762 -1002 -200 -445 -321 -945 -390 -1609 -65 -625 -73 -1727 -19 -2656 121 -2095 560 -3077 1610 -3603 534 -267 1275 -421 2244 -466 113 -6 318 -15 455 -22 218 -10 784 -8 1087 5 37 2 163 6 280 10 997 32 1798 138 2358 313 404 126 764 310 1021 520 497 407 799 1004 964 1905 92 500 136 1016 156 1843 37 1489 -66 2661 -298 3390 -47 147 -51 159 -96 275 -125 320 -277 580 -471 807 -607 709 -1584 1042 -3311 1128 -362 18 -1387 27 -1685 15z"/>
    </g>
</svg>